<?xml version="1.0" encoding="UTF-8" standalone="no"?>
<!-- Created with Inkscape (http://www.inkscape.org/) -->

<svg
   width="210mm"
   height="297mm"
   viewBox="0 0 210 297"
   version="1.1"
   id="svg1"
   inkscape:version="1.3.2 (091e20e, 2023-11-25)"
   sodipodi:docname="favicon.svg"
   xml:space="preserve"
   xmlns:inkscape="http://www.inkscape.org/namespaces/inkscape"
   xmlns:sodipodi="http://sodipodi.sourceforge.net/DTD/sodipodi-0.dtd"
   xmlns="http://www.w3.org/2000/svg"
   xmlns:svg="http://www.w3.org/2000/svg"><sodipodi:namedview
     id="namedview1"
     pagecolor="#ffffff"
     bordercolor="#000000"
     borderopacity="0.25"
     inkscape:showpageshadow="2"
     inkscape:pageopacity="0.0"
     inkscape:pagecheckerboard="0"
     inkscape:deskcolor="#d1d1d1"
     inkscape:document-units="mm"
     inkscape:zoom="0.55320114"
     inkscape:cx="99.421342"
     inkscape:cy="414.85815"
     inkscape:window-width="1512"
     inkscape:window-height="916"
     inkscape:window-x="0"
     inkscape:window-y="38"
     inkscape:window-maximized="0"
     inkscape:current-layer="layer1" /><defs
     id="defs1" /><g
     inkscape:label="Layer 1"
     inkscape:groupmode="layer"
     id="layer1"><rect
       style="fill:none;fill-opacity:1;stroke:none;stroke-width:1.614;stroke-dasharray:none"
       id="rect10"
       width="64.558174"
       height="67.041176"
       x="46.866749"
       y="63.627041"
       ry="0"
       inkscape:export-filename="assets/img/favicon.png"
       inkscape:export-xdpi="15.826616"
       inkscape:export-ydpi="15.826616" /><rect
       style="fill:#a624a6;fill-opacity:1;stroke:none;stroke-width:1.61849;stroke-dasharray:none"
       id="rect4"
       width="51.346001"
       height="51.346001"
       x="127.56447"
       y="74.800575" /><rect
       style="fill:#ffffff;fill-opacity:1;stroke:none;stroke-width:1.61849;stroke-dasharray:none"
       id="rect5"
       width="51.346001"
       height="51.346001"
       x="127.56447"
       y="74.800575"
       ry="13.035785" /><rect
       style="fill:#c5d7ce;fill-opacity:1;stroke:none;stroke-width:1.614;stroke-dasharray:none;stroke-opacity:1"
       id="rect12"
       width="64.558174"
       height="67.041176"
       x="46.866749"
       y="143.00203"
       ry="32.279087"
       inkscape:export-filename="assets/img/favicon.png"
       inkscape:export-xdpi="15.826616"
       inkscape:export-ydpi="15.826616" /><path
       id="path12"
       style="fill:#39565d;fill-opacity:1;stroke:none;stroke-width:1.67309;stroke-dasharray:none;stroke-opacity:1"
       d="m 58.425156,146.18001 c -4.684179,1.57309 -8.371518,5.26085 -9.944038,9.94529 v 34.96941 5.90584 c 1.572943,4.6857 5.261838,8.37418 9.947809,9.94654 h 5.904585 44.914698 V 191.09471 H 64.333512 v -44.9147 z" /><path
       id="path13"
       style="fill:#5eac7e;fill-opacity:1;stroke:none;stroke-width:1.67309;stroke-dasharray:none;stroke-opacity:1"
       d="m 69.982962,146.16807 v 13.23442 h 39.277808 v -3.24137 c -1.56933,-4.71329 -5.27782,-8.42258 -9.990532,-9.99305 z" /><rect
       style="fill:#5eac7e;fill-opacity:1;stroke:none;stroke-width:1.67309;stroke-dasharray:none;stroke-opacity:1"
       id="rect13"
       width="39.27774"
       height="13.234745"
       x="69.982742"
       y="168.65939" /><rect
       style="fill:none;fill-opacity:1;stroke:none;stroke-width:1.614;stroke-dasharray:none"
       id="rect14"
       width="64.558174"
       height="67.041176"
       x="46.866749"
       y="143.00203"
       ry="0"
       inkscape:export-filename="assets/img/favicon.png"
       inkscape:export-xdpi="15.826616"
       inkscape:export-ydpi="15.826616" /><path
       id="rect16"
       style="fill:#ffffff;fill-opacity:1;stroke:none;stroke-width:1.614;stroke-dasharray:none"
       d="M 46.866907 143.00212 L 46.866907 175.28129 C 46.866907 157.39869 61.263477 143.00212 79.146073 143.00212 L 46.866907 143.00212 z M 79.146073 143.00212 C 97.02867 143.00212 111.42472 157.39869 111.42472 175.28129 L 111.42472 143.00212 L 79.146073 143.00212 z M 46.866907 177.76434 L 46.866907 210.04299 L 79.146073 210.04299 C 61.263477 210.04299 46.866907 195.64694 46.866907 177.76434 z M 79.146073 210.04299 L 111.42472 210.04299 L 111.42472 177.76434 C 111.42472 195.64694 97.02867 210.04299 79.146073 210.04299 z " /><path
       id="rect1"
       style="fill:#353535;fill-opacity:1;stroke:none;stroke-width:1.37583;stroke-dasharray:none;stroke-opacity:1"
       d="m 62.337816,72.162405 c -3.85194,1.293596 -6.884149,4.326156 -8.177279,8.178312 v 28.756383 4.85655 c 1.293478,3.85319 4.326966,6.88634 8.18038,8.17934 h 4.855517 36.934696 V 109.0971 H 67.196434 V 72.162405 Z" /><rect
       style="fill:#75c194;fill-opacity:1;stroke:#353535;stroke-width:1.38797;stroke-dasharray:none;stroke-opacity:1"
       id="rect3"
       width="32.355705"
       height="11.057027"
       x="71.081444"
       y="91.097801" /><rect
       style="fill:#75c194;fill-opacity:1;stroke:#353535;stroke-width:1.38798;stroke-dasharray:none;stroke-opacity:1"
       id="rect17"
       width="32.355968"
       height="11.057017"
       x="71.081177"
       y="72.856262" /></g></svg>
