<?xml version="1.0" encoding="UTF-8" standalone="no"?>
<!-- Created with Inkscape (http://www.inkscape.org/) -->

<svg
   width="210mm"
   height="297mm"
   viewBox="0 0 210 297"
   version="1.1"
   id="svg1"
   inkscape:version="1.3.2 (091e20e, 2023-11-25)"
   sodipodi:docname="favicon.svg"
   xml:space="preserve"
   xmlns:inkscape="http://www.inkscape.org/namespaces/inkscape"
   xmlns:sodipodi="http://sodipodi.sourceforge.net/DTD/sodipodi-0.dtd"
   xmlns="http://www.w3.org/2000/svg"
   xmlns:svg="http://www.w3.org/2000/svg"><sodipodi:namedview
     id="namedview1"
     pagecolor="#ffffff"
     bordercolor="#000000"
     borderopacity="0.25"
     inkscape:showpageshadow="2"
     inkscape:pageopacity="0.0"
     inkscape:pagecheckerboard="0"
     inkscape:deskcolor="#d1d1d1"
     inkscape:document-units="mm"
     inkscape:zoom="0.71074828"
     inkscape:cx="482.58998"
     inkscape:cy="878.65144"
     inkscape:window-width="1512"
     inkscape:window-height="916"
     inkscape:window-x="0"
     inkscape:window-y="38"
     inkscape:window-maximized="0"
     inkscape:current-layer="layer1" /><defs
     id="defs1" /><g
     inkscape:label="Layer 1"
     inkscape:groupmode="layer"
     id="layer1"><rect
       style="fill:none;fill-opacity:1;stroke:none;stroke-width:1.614;stroke-dasharray:none"
       id="rect10"
       width="64.558174"
       height="67.041176"
       x="46.866749"
       y="37.168701"
       ry="0"
       inkscape:export-filename="assets/img/favicon.png"
       inkscape:export-xdpi="15.826616"
       inkscape:export-ydpi="15.826616" /><rect
       style="fill:#a624a6;fill-opacity:1;stroke:none;stroke-width:1.61849;stroke-dasharray:none"
       id="rect4"
       width="51.346001"
       height="51.346001"
       x="127.56447"
       y="48.342243" /><rect
       style="fill:#ffffff;fill-opacity:1;stroke:none;stroke-width:1.61849;stroke-dasharray:none"
       id="rect5"
       width="51.346001"
       height="51.346001"
       x="127.56447"
       y="48.342243"
       ry="13.035785" /><rect
       style="fill:#c5d7ce;fill-opacity:1;stroke:none;stroke-width:1.614;stroke-dasharray:none;stroke-opacity:1"
       id="rect12"
       width="64.558174"
       height="67.041176"
       x="46.866749"
       y="116.54369"
       ry="32.279087"
       inkscape:export-filename="assets/img/favicon.png"
       inkscape:export-xdpi="15.826616"
       inkscape:export-ydpi="15.826616" /><path
       id="path12"
       style="fill:#39565d;fill-opacity:1;stroke:none;stroke-width:1.67309;stroke-dasharray:none;stroke-opacity:1"
       d="m 58.425156,119.72166 c -4.684179,1.57309 -8.371518,5.26085 -9.944038,9.94529 v 34.96941 5.90584 c 1.572943,4.6857 5.261838,8.37418 9.947809,9.94654 h 5.904585 44.914698 V 164.63636 H 64.333512 v -44.9147 z" /><path
       id="path13"
       style="fill:#5eac7e;fill-opacity:1;stroke:none;stroke-width:1.67309;stroke-dasharray:none;stroke-opacity:1"
       d="m 69.982962,119.70972 v 13.23442 h 39.277808 v -3.24137 c -1.56933,-4.71329 -5.27782,-8.42258 -9.990532,-9.99305 z" /><rect
       style="fill:#5eac7e;fill-opacity:1;stroke:none;stroke-width:1.67309;stroke-dasharray:none;stroke-opacity:1"
       id="rect13"
       width="39.27774"
       height="13.234745"
       x="69.982742"
       y="142.20103" /><rect
       style="fill:none;fill-opacity:1;stroke:none;stroke-width:1.614;stroke-dasharray:none"
       id="rect14"
       width="64.558174"
       height="67.041176"
       x="46.866749"
       y="116.54369"
       ry="0"
       inkscape:export-filename="assets/img/favicon.png"
       inkscape:export-xdpi="15.826616"
       inkscape:export-ydpi="15.826616" /><path
       id="rect16"
       style="fill:#ffffff;fill-opacity:1;stroke:none;stroke-width:1.614;stroke-dasharray:none"
       d="m 46.866907,116.54377 v 32.27917 c 0,-17.8826 14.39657,-32.27917 32.279166,-32.27917 z m 32.279166,0 c 17.882597,0 32.278647,14.39657 32.278647,32.27917 v -32.27917 z m -32.279166,34.76222 v 32.27865 h 32.279166 c -17.882596,0 -32.279166,-14.39605 -32.279166,-32.27865 z m 32.279166,32.27865 h 32.278647 v -32.27865 c 0,17.8826 -14.39605,32.27865 -32.278647,32.27865 z" /><path
       id="rect1"
       style="fill:#353535;fill-opacity:1;stroke:none;stroke-width:1.37583;stroke-dasharray:none;stroke-opacity:1"
       d="m 62.337816,45.704 c -3.85194,1.293596 -6.884149,4.326156 -8.177279,8.178312 v 28.75638 4.856547 c 1.293478,3.853187 4.326966,6.886337 8.18038,8.179334 h 4.855517 36.934696 V 82.638692 H 67.196434 V 45.704 Z" /><rect
       style="fill:#aab2ad;fill-opacity:1;stroke:#353535;stroke-width:2.238;stroke-dasharray:none;stroke-opacity:1"
       id="rect3"
       width="30.01436"
       height="11.075905"
       x="72.997772"
       y="65.095695" /><rect
       style="fill:#aab2ad;fill-opacity:1;stroke:#353535;stroke-width:2.238;stroke-dasharray:none;stroke-opacity:1"
       id="rect17"
       width="30.014605"
       height="11.075894"
       x="72.997528"
       y="46.822998"
       inkscape:export-filename="favicon.png"
       inkscape:export-xdpi="15.826616"
       inkscape:export-ydpi="15.826616" /><rect
       style="fill:#c5d7ce;fill-opacity:1;stroke:none;stroke-width:1.614;stroke-dasharray:none;stroke-opacity:1"
       id="rect18"
       width="64.558174"
       height="67.041176"
       x="126.24174"
       y="116.54369"
       ry="22.713545"
       inkscape:export-filename="assets/img/favicon.png"
       inkscape:export-xdpi="15.826616"
       inkscape:export-ydpi="15.826616" /><rect
       style="fill:#ffffff;fill-opacity:1;stroke:none;stroke-width:21.8105;stroke-dasharray:none;stroke-opacity:1"
       id="rect21"
       width="8"
       height="45.091892"
       x="133.31529"
       y="-193.86725"
       ry="0"
       transform="rotate(90)" /><rect
       style="fill:#ffffff;fill-opacity:1;stroke:none;stroke-width:21.8105;stroke-dasharray:none;stroke-opacity:1"
       id="rect22"
       width="8"
       height="45.091892"
       x="155.01106"
       y="-193.86725"
       ry="0"
       transform="rotate(90)" /><rect
       style="fill:#ffffff;fill-opacity:1;stroke:none;stroke-width:23.2063;stroke-dasharray:none;stroke-opacity:1"
       id="rect23"
       width="8"
       height="51.048058"
       x="148.77536"
       y="111.45894"
       ry="0" /><path
       id="rect24"
       style="fill:#729a86;fill-opacity:1;stroke:none;stroke-width:1.614;stroke-dasharray:none;stroke-opacity:1"
       d="M 156.77544 195.91879 L 156.77544 212.69038 L 190.01579 212.69038 C 187.41573 203.00829 178.61148 195.91879 168.08638 195.91879 L 156.77544 195.91879 z M 156.77544 220.69041 L 156.77544 234.38621 L 190.79972 234.38621 L 190.79972 220.69041 L 156.77544 220.69041 z "
       inkscape:export-filename="assets/img/favicon.png"
       inkscape:export-xdpi="12.590264"
       inkscape:export-ydpi="12.590264" /><path
       id="path27"
       style="fill:#4c514f;fill-opacity:1;stroke:none;stroke-width:1.614;stroke-dasharray:none;stroke-opacity:1"
       d="M 148.77542 195.92344 C 136.27606 196.01995 126.24191 206.1092 126.24191 218.63213 L 126.24191 240.24632 C 126.24191 252.82959 136.37197 262.96018 148.95525 262.96018 L 168.08638 262.96018 C 179.94752 262.96018 189.62525 253.95814 190.6974 242.38624 L 148.77542 242.38624 L 148.77542 241.88188 L 148.77542 234.38621 L 148.77542 220.69041 L 148.77542 212.69038 L 148.77542 195.92344 z " /><path
       id="path28"
       style="fill:#5ab186;fill-opacity:1;stroke:none;stroke-width:1.614;stroke-dasharray:none;stroke-opacity:1"
       d="m 77.400405,195.91879 v 16.77159 h 33.240335 c -2.60006,-9.68209 -11.404307,-16.77159 -21.929401,-16.77159 z m 0,24.77162 v 13.6958 h 34.024265 v -13.6958 z"
       inkscape:export-filename="assets/img/favicon.png"
       inkscape:export-xdpi="12.590264"
       inkscape:export-ydpi="12.590264" /><path
       id="path29"
       style="fill:#000000;fill-opacity:1;stroke:none;stroke-width:1.614;stroke-dasharray:none;stroke-opacity:1"
       d="m 69.400388,195.92344 c -12.499351,0.0965 -22.533495,10.18576 -22.533495,22.70869 v 21.61419 c 0,12.58327 10.130054,22.71386 22.713325,22.71386 h 19.131121 c 11.861131,0 21.538861,-9.00204 22.611011,-20.57394 H 69.400388 v -0.50436 -7.49567 -13.6958 -8.00003 z" /></g></svg>
